<mxfile host="app.diagrams.net" modified="2020-11-30T22:03:15.216Z" agent="5.0 (X11)" etag="WeoMxoJjLbex140dh5lv" version="13.10.4" type="github">
  <diagram id="OjRyz25cfK-xzJfdap_S" name="Page-1">
    <mxGraphModel dx="868" dy="492" grid="1" gridSize="10" guides="1" tooltips="1" connect="1" arrows="1" fold="1" page="1" pageScale="1" pageWidth="827" pageHeight="1169" math="0" shadow="0">
      <root>
        <mxCell id="0" />
        <mxCell id="1" parent="0" />
        <mxCell id="dr6jYsSro6lZGzSy0EnV-7" style="edgeStyle=orthogonalEdgeStyle;rounded=0;orthogonalLoop=1;jettySize=auto;html=1;exitX=0.5;exitY=1;exitDx=0;exitDy=0;exitPerimeter=0;" edge="1" parent="1" source="dr6jYsSro6lZGzSy0EnV-1" target="dr6jYsSro6lZGzSy0EnV-2">
          <mxGeometry relative="1" as="geometry" />
        </mxCell>
        <mxCell id="dr6jYsSro6lZGzSy0EnV-15" style="edgeStyle=orthogonalEdgeStyle;rounded=0;orthogonalLoop=1;jettySize=auto;html=1;exitX=1;exitY=0.5;exitDx=0;exitDy=0;exitPerimeter=0;entryX=0;entryY=0.5;entryDx=0;entryDy=0;entryPerimeter=0;dashed=1;endArrow=none;endFill=0;" edge="1" parent="1" source="dr6jYsSro6lZGzSy0EnV-1" target="dr6jYsSro6lZGzSy0EnV-14">
          <mxGeometry relative="1" as="geometry" />
        </mxCell>
        <mxCell id="dr6jYsSro6lZGzSy0EnV-1" value="get_sum_half2" style="strokeWidth=1;html=1;shape=mxgraph.flowchart.terminator;whiteSpace=wrap;" vertex="1" parent="1">
          <mxGeometry x="334" y="80" width="160" height="40" as="geometry" />
        </mxCell>
        <mxCell id="dr6jYsSro6lZGzSy0EnV-8" style="edgeStyle=orthogonalEdgeStyle;rounded=0;orthogonalLoop=1;jettySize=auto;html=1;exitX=0.5;exitY=1;exitDx=0;exitDy=0;" edge="1" parent="1" source="dr6jYsSro6lZGzSy0EnV-2" target="dr6jYsSro6lZGzSy0EnV-3">
          <mxGeometry relative="1" as="geometry" />
        </mxCell>
        <mxCell id="dr6jYsSro6lZGzSy0EnV-2" value="half = num % 1000" style="rounded=0;whiteSpace=wrap;html=1;strokeWidth=1;" vertex="1" parent="1">
          <mxGeometry x="334" y="140" width="160" height="40" as="geometry" />
        </mxCell>
        <mxCell id="dr6jYsSro6lZGzSy0EnV-9" style="edgeStyle=orthogonalEdgeStyle;rounded=0;orthogonalLoop=1;jettySize=auto;html=1;exitX=0.5;exitY=1;exitDx=0;exitDy=0;entryX=0.5;entryY=0;entryDx=0;entryDy=0;" edge="1" parent="1" source="dr6jYsSro6lZGzSy0EnV-3" target="dr6jYsSro6lZGzSy0EnV-4">
          <mxGeometry relative="1" as="geometry" />
        </mxCell>
        <mxCell id="dr6jYsSro6lZGzSy0EnV-3" value="sum_half2" style="shape=parallelogram;perimeter=parallelogramPerimeter;whiteSpace=wrap;html=1;fixedSize=1;strokeWidth=1;" vertex="1" parent="1">
          <mxGeometry x="334" y="200" width="160" height="40" as="geometry" />
        </mxCell>
        <mxCell id="dr6jYsSro6lZGzSy0EnV-10" style="edgeStyle=orthogonalEdgeStyle;rounded=0;orthogonalLoop=1;jettySize=auto;html=1;exitX=0.5;exitY=1;exitDx=0;exitDy=0;" edge="1" parent="1" source="dr6jYsSro6lZGzSy0EnV-4" target="dr6jYsSro6lZGzSy0EnV-5">
          <mxGeometry relative="1" as="geometry" />
        </mxCell>
        <mxCell id="dr6jYsSro6lZGzSy0EnV-11" style="edgeStyle=orthogonalEdgeStyle;rounded=0;orthogonalLoop=1;jettySize=auto;html=1;exitX=1;exitY=0.5;exitDx=0;exitDy=0;entryX=0.5;entryY=0;entryDx=0;entryDy=0;entryPerimeter=0;" edge="1" parent="1" source="dr6jYsSro6lZGzSy0EnV-4" target="dr6jYsSro6lZGzSy0EnV-6">
          <mxGeometry relative="1" as="geometry">
            <Array as="points">
              <mxPoint x="530" y="290" />
              <mxPoint x="530" y="420" />
              <mxPoint x="414" y="420" />
            </Array>
          </mxGeometry>
        </mxCell>
        <mxCell id="dr6jYsSro6lZGzSy0EnV-4" value="j = 1..(half / j), j * 10" style="verticalLabelPosition=middle;verticalAlign=middle;html=1;shape=hexagon;perimeter=hexagonPerimeter2;arcSize=6;size=0.26;strokeWidth=1;labelPosition=center;align=center;" vertex="1" parent="1">
          <mxGeometry x="334" y="260" width="160" height="60" as="geometry" />
        </mxCell>
        <mxCell id="dr6jYsSro6lZGzSy0EnV-13" style="edgeStyle=orthogonalEdgeStyle;rounded=0;orthogonalLoop=1;jettySize=auto;html=1;entryX=0;entryY=0.5;entryDx=0;entryDy=0;" edge="1" parent="1" source="dr6jYsSro6lZGzSy0EnV-5" target="dr6jYsSro6lZGzSy0EnV-4">
          <mxGeometry relative="1" as="geometry">
            <Array as="points">
              <mxPoint x="414" y="410" />
              <mxPoint x="314" y="410" />
              <mxPoint x="314" y="290" />
            </Array>
          </mxGeometry>
        </mxCell>
        <mxCell id="dr6jYsSro6lZGzSy0EnV-5" value="sum_half2 += half / j % 10" style="rounded=0;whiteSpace=wrap;html=1;strokeWidth=1;" vertex="1" parent="1">
          <mxGeometry x="334" y="340" width="160" height="60" as="geometry" />
        </mxCell>
        <mxCell id="dr6jYsSro6lZGzSy0EnV-17" style="edgeStyle=orthogonalEdgeStyle;rounded=0;orthogonalLoop=1;jettySize=auto;html=1;exitX=1;exitY=0.5;exitDx=0;exitDy=0;exitPerimeter=0;entryX=0;entryY=0.5;entryDx=0;entryDy=0;entryPerimeter=0;dashed=1;endArrow=none;endFill=0;" edge="1" parent="1" source="dr6jYsSro6lZGzSy0EnV-6" target="dr6jYsSro6lZGzSy0EnV-16">
          <mxGeometry relative="1" as="geometry" />
        </mxCell>
        <mxCell id="dr6jYsSro6lZGzSy0EnV-6" value="кінець" style="strokeWidth=1;html=1;shape=mxgraph.flowchart.terminator;whiteSpace=wrap;" vertex="1" parent="1">
          <mxGeometry x="334" y="440" width="160" height="40" as="geometry" />
        </mxCell>
        <mxCell id="dr6jYsSro6lZGzSy0EnV-14" value="&lt;div&gt;Функція&lt;/div&gt;&lt;div&gt; приймає&lt;/div&gt;&lt;div&gt; задане число&lt;/div&gt;" style="strokeWidth=1;html=1;shape=mxgraph.flowchart.annotation_1;align=left;pointerEvents=1;" vertex="1" parent="1">
          <mxGeometry x="570" y="50" width="50" height="100" as="geometry" />
        </mxCell>
        <mxCell id="dr6jYsSro6lZGzSy0EnV-16" value="&lt;div&gt;Функція &lt;br&gt;&lt;/div&gt;&lt;div&gt;повертає &lt;br&gt;&lt;/div&gt;&lt;div&gt;sum_half2&lt;/div&gt;" style="strokeWidth=1;html=1;shape=mxgraph.flowchart.annotation_1;align=left;pointerEvents=1;" vertex="1" parent="1">
          <mxGeometry x="570" y="410" width="50" height="100" as="geometry" />
        </mxCell>
      </root>
    </mxGraphModel>
  </diagram>
</mxfile>
